<?xml version="1.0" standalone="no"?><!DOCTYPE svg PUBLIC "-//W3C//DTD SVG 1.1//EN" "http://www.w3.org/Graphics/SVG/1.1/DTD/svg11.dtd"><svg t="1689767703142" class="icon" viewBox="0 0 1152 1024" version="1.1" xmlns="http://www.w3.org/2000/svg" p-id="3783" xmlns:xlink="http://www.w3.org/1999/xlink" width="54" height="48"><path d="M179.264 696.32l16.32-18.24-16.704 18.816 0.384-0.512z m926.72-481.664c-25.728 15.168-42.176 42.048-44.928 72-2.944 32.64 0.96 66.56 27.968 116.864 76.096 141.824 48.192 428.928-303.68 465.152-37.056 3.776-73.92 6.4-110.272 8.32 278.848-184.128 251.712-493.504 12.8-537.088-74.944-13.696-151.424 15.168-202.112 72L404.8 502.592a19346.944 19346.944 0 0 0 223.872-255.744c31.168-36.8 67.264-86.528 7.936-196.032a30.528 30.528 0 0 1 24.256-45.248c70.016-5.44 195.712-10.432 269.12 14.656a285.568 285.568 0 0 1 126.592 84.672c17.408 20.608 40 36.096 65.088 45.952l17.088 6.72a20.16 20.16 0 0 1 2.944 36.032l-35.648 21.12zM157.184 780.8c39.424-44.032 143.744-160.896 247.808-278.4a232047.872 232047.872 0 0 0-247.808 278.4z m4.864 75.328c97.408 12.544 295.168 32.192 513.216 20.736-0.128 0.192-0.448 0.32-0.576 0.448C347.392 1092.8-31.232 997.504 2.368 956.416c10.304-12.672 66.048-75.648 138.048-156.8a34.432 34.432 0 0 0 21.568 56.512z m526.016-516.352c-74.944-13.696-151.424 15.168-202.112 72-22.72 25.344-50.432 56.384-80.96 90.688a81690.752 81690.752 0 0 1-264.512 297.088 34.432 34.432 0 0 0 21.568 56.576c97.408 12.544 295.168 32.192 513.088 20.928 278.848-184.32 251.84-493.696 12.928-537.28z" fill="#9E9E9E" p-id="3784"></path></svg>