<?xml version="1.0" standalone="no"?><!DOCTYPE svg PUBLIC "-//W3C//DTD SVG 1.1//EN" "http://www.w3.org/Graphics/SVG/1.1/DTD/svg11.dtd"><svg t="1689781312214" class="icon" viewBox="0 0 1061 1024" version="1.1" xmlns="http://www.w3.org/2000/svg" p-id="1499" xmlns:xlink="http://www.w3.org/1999/xlink" width="49.734375" height="48"><path d="M258.490881 610.759953c-0.076713 0.076713-0.153427 0.23014-0.23014 0.306854 2.991819-3.375386 6.137065-6.904198 9.205598-10.356298-5.753499 6.443918-8.975458 10.049444-8.975458 10.049444z" fill="#1590E9" p-id="1500"></path><path d="M246.293464 657.248222c21.709868-24.241407 79.16814-88.603878 136.472986-153.273202-41.885469 46.948548-93.436816 104.8671-136.472986 153.273202z" fill="#1590E9" p-id="1501"></path><path d="M0 512a512 508.54023 90 1 0 1017.080459 0 512 508.54023 90 1 0-1017.080459 0Z" fill="#2CC35A" p-id="1502"></path><path d="M768.864559 345.485314l19.638608-11.583711c7.978185-4.679512 6.980912-16.493363-1.610979-19.868748l-9.435738-3.682239c-13.808397-5.446645-26.235953-13.961823-35.825117-25.315394-12.04399-14.191963-34.290851-34.597705-69.732403-46.641695-40.427916-13.808397-109.623326-11.046717-148.210122-8.054898-12.197417 0.92056-19.178328 14.11525-13.348117 24.931827 32.679872 60.296665 12.811123 87.683318-4.372659 107.935633-26.312667 30.992179-74.718768 86.072338-123.278295 140.845645 16.800216-18.794762 32.066165-35.901831 44.570435-49.940368 27.923646-31.299032 70.039256-47.178688 111.311019-39.660783 131.563333 24.011267 146.52243 194.391538-7.057625 295.806538 20.022175-1.073986 40.351203-2.531539 60.756944-4.602798 193.777831-19.945462 209.120494-178.051602 167.235025-256.145756-14.882383-27.693506-17.030356-46.411555-15.419376-64.36247 1.534266-16.493363 10.586437-31.299032 24.7784-39.660783z" fill="#CCCCCC" p-id="1503"></path><path d="M538.647904 414.37387c-41.271763-7.517905-83.387372 8.361751-111.311019 39.660783-12.50427 13.961823-27.77022 31.068892-44.570435 49.940367C325.461604 568.644344 268.003332 633.006814 246.293464 657.248222c-3.145246 3.528812-6.213778 6.980912-9.205597 10.356297-9.742591 11.430284-3.068533 29.151059 11.890563 31.145605 53.622606 6.904198 162.555512 17.720776 282.535136 11.506997 153.580055-101.491714 138.697672-271.871985 7.134338-295.883251z" fill="#FFFFFF" p-id="1504"></path><path d="M248.97843 698.750124c-14.959096-1.917833-21.633155-19.638608-11.890563-31.145605-39.660783 44.723862-70.346109 79.39828-76.022894 86.379191-18.487909 22.630428 190.018879 75.102334 370.218453-43.573162 0.076713-0.076713 0.23014-0.153427 0.306853-0.23014-120.056336 6.290492-228.989242-4.526086-282.611849-11.430284z" fill="#CCCCCC" p-id="1505"></path><path d="M614.88713 562.195056m-93.024866 0a93.024866 93.024866 0 1 0 186.049731 0 93.024866 93.024866 0 1 0-186.049731 0Z" fill="#225000" fill-opacity="0" p-id="1506"></path><path d="M217.417039 662.753936a421.90098 187.006347 0 1 0 843.80196 0 421.90098 187.006347 0 1 0-843.80196 0Z" fill="#225000" fill-opacity="0" p-id="1507"></path></svg>